<?xml version="1.0" encoding="UTF-8"?>
<svg version="1.1" xmlns="http://www.w3.org/2000/svg" width="280" height="280">
<path d="M0 0 C5.22862331 -0.09968046 10.45668044 -0.17184747 15.68603516 -0.21972656 C17.46087289 -0.23970839 19.23564594 -0.26690355 21.01025391 -0.30175781 C43.23026567 -0.72690154 43.23026567 -0.72690154 52.26953125 7.67578125 C56.08212584 11.81716314 58.92788825 16.30206293 61.6875 21.1875 C62.71469555 22.95006475 63.74339443 24.71175407 64.7734375 26.47265625 C65.29905273 27.37773926 65.82466797 28.28282227 66.36621094 29.21533203 C69.11179565 33.8949703 71.95853808 38.51092192 74.8125 43.125 C75.32707764 43.96442139 75.84165527 44.80384277 76.37182617 45.66870117 C80.03724422 51.60024909 83.94917998 57.32538909 88 63 C92.37506028 56.24868984 96.56901081 49.41004267 100.6875 42.5 C105.73226964 34.04348195 110.93754284 25.70097981 116.21875 17.390625 C119.87605607 11.63263487 123.44603629 5.82222878 127 0 C130.67304646 1.22434882 130.9474392 2.13260218 132.8203125 5.41796875 C133.61659058 6.79480835 133.61659058 6.79480835 134.42895508 8.19946289 C134.9886499 9.18551514 135.54834473 10.17156738 136.125 11.1875 C137.29609846 13.21214125 138.46927692 15.2355808 139.64453125 17.2578125 C140.50425537 18.73942871 140.50425537 18.73942871 141.38134766 20.25097656 C143.43948728 23.74639921 145.59331425 27.16769192 147.8125 30.5625 C163.88147 55.21141544 163.88147 55.21141544 167 64 C167.66 64 168.32 64 169 64 C169.21914062 63.35160156 169.43828125 62.70320313 169.6640625 62.03515625 C171.48917087 57.88863811 173.91769378 54.23494282 176.375 50.4375 C180.81322063 43.50797893 185.1143905 36.51488523 189.3125 29.4375 C204.6585178 3.74800136 204.6585178 3.74800136 218 0 C221.04334813 -0.36611467 224.03207124 -0.35298368 227.09375 -0.29296875 C227.92588013 -0.28872391 228.75801025 -0.28447906 229.61535645 -0.28010559 C232.24391593 -0.26346307 234.87167667 -0.22583976 237.5 -0.1875 C239.29425967 -0.17243444 241.0885315 -0.15874933 242.8828125 -0.14648438 C247.25551083 -0.11360714 251.62762053 -0.06192722 256 0 C254.77887096 3.99349056 253.35255221 7.396187 251.1640625 10.94921875 C250.60017822 11.87057617 250.03629395 12.79193359 249.45532227 13.74121094 C248.54931274 15.19962402 248.54931274 15.19962402 247.625 16.6875 C247.00230225 17.69973633 246.37960449 18.71197266 245.73803711 19.75488281 C240.75664035 27.83296034 235.72243929 35.87819945 230.60546875 43.87109375 C229.01826571 46.35829823 227.5164709 48.84593368 226.05078125 51.41015625 C221.98394185 58.45365666 217.09611214 63.21806929 209.09490967 65.55686951 C205.60490466 66.29510069 202.06699979 66.12089704 198.515625 66.09765625 C197.70003113 66.0962413 196.88443726 66.09482635 196.04412842 66.09336853 C193.44604788 66.08778303 190.84805437 66.07523321 188.25 66.0625 C186.48567833 66.05748312 184.72135531 66.05292054 182.95703125 66.04882812 C178.63798744 66.03781835 174.31900846 66.02056369 170 66 C170.37286133 66.62455078 170.74572266 67.24910156 171.12988281 67.89257812 C172.83950595 70.75999073 174.54477761 73.62996832 176.25 76.5 C176.83652344 77.48226562 177.42304688 78.46453125 178.02734375 79.4765625 C188.10468498 96.46084548 188.10468498 96.46084548 188.3125 104.0625 C188.36857422 105.37927734 188.36857422 105.37927734 188.42578125 106.72265625 C187.2552061 115.73286314 182.21191257 123.40262841 177.4375 130.9375 C176.86064453 131.86884766 176.28378906 132.80019531 175.68945312 133.75976562 C171.0464653 141.17676463 171.0464653 141.17676463 168 144 C164.62921558 140.03166743 162.06889764 135.87421988 159.5 131.375 C154.38260862 122.54383909 148.95394302 113.93060503 143.47265625 105.32226562 C140.72017765 100.98181861 138.00793091 96.61616226 135.296875 92.24975586 C132.93191769 88.45175186 130.50019062 84.71051016 128 81 C120.69356037 91.66869504 113.95698999 102.61252012 107.35595703 113.72900391 C105.53707116 116.77532662 103.67925642 119.79525752 101.8125 122.8125 C97.47066426 129.83256284 93.2337076 136.91441991 89 144 C85.26373514 142.75457838 84.90174298 141.65599608 82.92578125 138.328125 C82.34481689 137.36028076 81.76385254 136.39243652 81.1652832 135.39526367 C80.24815552 133.83835815 80.24815552 133.83835815 79.3125 132.25 C78.04184798 130.12619359 76.77101604 128.00249482 75.5 125.87890625 C74.8915625 124.85555176 74.283125 123.83219727 73.65625 122.77783203 C71.73849063 119.56140129 69.78425746 116.37106673 67.8125 113.1875 C65.73292167 109.81805664 63.65983539 106.44498774 61.6015625 103.0625 C56.27572755 94.31419391 50.88384007 85.61137668 45.4375 76.9375 C40.66788023 69.3365909 36.00162718 61.69272283 31.48706055 53.93798828 C26.03394441 44.59075752 20.21824927 35.47343842 14.3984375 26.3515625 C13.46209473 24.8833606 13.46209473 24.8833606 12.50683594 23.38549805 C11.28019111 21.4638924 10.05176135 19.54342462 8.82128906 17.62426758 C0 3.82253181 0 3.82253181 0 0 Z " fill="#02D1C9" transform="translate(12,18)"/>
<path d="M0 0 C1.78513619 0.02009777 3.57029425 0.03834274 5.35546875 0.0546875 C9.6958596 0.09841914 14.0351846 0.16726411 18.375 0.25 C17.15387096 4.24349056 15.72755221 7.646187 13.5390625 11.19921875 C12.97493652 12.120979 12.41081055 13.04273926 11.82958984 13.99243164 C11.2258252 14.9643042 10.62206055 15.93617676 10 16.9375 C9.37947754 17.94611084 8.75895508 18.95472168 8.11962891 19.99389648 C2.67700706 28.81926381 -2.80691523 37.62244733 -8.40600586 46.34960938 C-9.19556153 47.5805129 -9.97810826 48.81595216 -10.75219727 50.05664062 C-13.0029649 53.59197727 -14.50928102 55.13764352 -18.625 56.25 C-18.955 56.25 -19.285 56.25 -19.625 56.25 C-19.625 57.24 -19.625 58.23 -19.625 59.25 C-21.02029129 59.87620916 -22.41626121 60.50090631 -23.8125 61.125 C-24.58980469 61.47304687 -25.36710937 61.82109375 -26.16796875 62.1796875 C-26.97878906 62.53289062 -27.78960937 62.88609375 -28.625 63.25 C-29.34171875 63.59804687 -30.0584375 63.94609375 -30.796875 64.3046875 C-34.34591061 65.49096736 -37.63712844 65.50011041 -41.33203125 65.4453125 C-42.05742599 65.4424826 -42.78282074 65.43965271 -43.53019714 65.43673706 C-45.83280368 65.42559799 -48.13501227 65.40050566 -50.4375 65.375 C-52.00455165 65.36496206 -53.57160943 65.35583763 -55.13867188 65.34765625 C-58.96759978 65.3256793 -62.79623256 65.29119339 -66.625 65.25 C-65.8203125 63.296875 -65.8203125 63.296875 -64.625 61.25 C-61.5 60.5 -61.5 60.5 -58.625 60.25 C-59.12773437 59.39148438 -59.12773437 59.39148438 -59.640625 58.515625 C-61.51294489 54.20631731 -60.20086211 50.52656371 -58.625 46.25 C-56.14454605 41.46432679 -53.08986994 37.01308501 -50.11181641 32.52832031 C-48.54366649 30.12536874 -47.03833864 27.69103796 -45.54296875 25.2421875 C-44.76735596 23.98039673 -44.76735596 23.98039673 -43.97607422 22.69311523 C-42.97849174 21.06852162 -41.98628446 19.44061027 -41.00048828 17.80883789 C-36.34936586 10.32781568 -31.37941178 3.94843482 -22.83691406 0.91210938 C-15.34470866 -0.63234647 -7.61080641 -0.14948036 0 0 Z " fill="#02E6AD" transform="translate(249.625,17.75)"/>
<path d="M0 0 C2.05078125 0.03255208 4.1015625 0.06510417 6.15234375 0.09765625 C6.6334265 1.51367339 7.11212516 2.93050062 7.58984375 4.34765625 C7.99009766 5.53101563 7.99009766 5.53101563 8.3984375 6.73828125 C9.07189083 8.84587613 9.6438497 10.94519598 10.15234375 13.09765625 C10.42949219 12.24300781 10.70664062 11.38835937 10.9921875 10.5078125 C11.35441406 9.40308594 11.71664062 8.29835937 12.08984375 7.16015625 C12.44949219 6.05800781 12.80914062 4.95585937 13.1796875 3.8203125 C14.15234375 1.09765625 14.15234375 1.09765625 15.15234375 0.09765625 C18.82150145 -0.04544662 22.47949816 0.05543963 26.15234375 0.09765625 C27.14234375 4.38765625 28.13234375 8.67765625 29.15234375 13.09765625 C30.47234375 8.80765625 31.79234375 4.51765625 33.15234375 0.09765625 C36.12234375 0.09765625 39.09234375 0.09765625 42.15234375 0.09765625 C41.48457048 6.64554416 39.59918592 12.70210436 37.65234375 18.97265625 C37.33136719 20.0296875 37.01039062 21.08671875 36.6796875 22.17578125 C34.28767828 29.96232172 34.28767828 29.96232172 33.15234375 31.09765625 C31.63306337 31.16945589 30.11066893 31.18157632 28.58984375 31.16015625 C27.76355469 31.15113281 26.93726562 31.14210937 26.0859375 31.1328125 C25.12880859 31.11541016 25.12880859 31.11541016 24.15234375 31.09765625 C23.95898438 30.494375 23.765625 29.89109375 23.56640625 29.26953125 C23.30601563 28.4703125 23.045625 27.67109375 22.77734375 26.84765625 C22.52210937 26.05875 22.266875 25.26984375 22.00390625 24.45703125 C21.20060708 22.23137667 20.25522713 20.18833953 19.15234375 18.09765625 C18.94738281 18.95230469 18.74242188 19.80695313 18.53125 20.6875 C18.26183594 21.79222656 17.99242188 22.89695313 17.71484375 24.03515625 C17.44800781 25.13730469 17.18117188 26.23945313 16.90625 27.375 C16.15234375 30.09765625 16.15234375 30.09765625 15.15234375 31.09765625 C13.46625409 31.16971136 11.77733716 31.18151693 10.08984375 31.16015625 C9.17074219 31.15113281 8.25164063 31.14210937 7.3046875 31.1328125 C6.59441406 31.12121094 5.88414063 31.10960937 5.15234375 31.09765625 C2.57645479 24.72611915 0.89554929 18.36191011 -0.59765625 11.66015625 C-0.83097656 10.65533203 -1.06429687 9.65050781 -1.3046875 8.61523438 C-1.51996094 7.66197266 -1.73523437 6.70871094 -1.95703125 5.7265625 C-2.15264648 4.8610376 -2.34826172 3.9955127 -2.54980469 3.10375977 C-2.6480957 2.44174561 -2.74638672 1.77973145 -2.84765625 1.09765625 C-1.84765625 0.09765625 -1.84765625 0.09765625 0 0 Z " fill="#108BCF" transform="translate(45.84765625,186.90234375)"/>
<path d="M0 0 C8 0 8 0 10.75 2.625 C11.52713499 3.73142948 12.2769332 4.857503 13 6 C13.39316406 6.57234375 13.78632813 7.1446875 14.19140625 7.734375 C15.15188902 9.13995954 16.07940962 10.56797053 17 12 C17.09087891 10.82630859 17.09087891 10.82630859 17.18359375 9.62890625 C17.26738281 8.61699219 17.35117188 7.60507813 17.4375 6.5625 C17.51871094 5.55316406 17.59992188 4.54382813 17.68359375 3.50390625 C18 1 18 1 19 0 C21.97 0 24.94 0 28 0 C28 10.23 28 20.46 28 31 C19 31 19 31 16.15234375 28.375 C15.38333223 27.27077833 14.64510584 26.14454278 13.9375 25 C13.54884766 24.42765625 13.16019531 23.8553125 12.75976562 23.265625 C11.81229132 21.86195936 10.90215626 20.43321278 10 19 C9.67 22.96 9.34 26.92 9 31 C6.03 31 3.06 31 0 31 C0 20.77 0 10.54 0 0 Z " fill="#0A89D0" transform="translate(134,187)"/>
<path d="M0 0 C3.609375 -0.020625 7.21875 -0.04125 10.9375 -0.0625 C12.07695068 -0.071604 13.21640137 -0.08070801 14.39038086 -0.09008789 C15.28120361 -0.09258545 16.17202637 -0.09508301 17.08984375 -0.09765625 C18.46450806 -0.10551147 18.46450806 -0.10551147 19.86694336 -0.11352539 C22 0 22 0 23 1 C23.125 4.5 23.125 4.5 23 8 C22 9 22 9 19.27734375 9.09765625 C17.62412109 9.08025391 17.62412109 9.08025391 15.9375 9.0625 C14.28041016 9.04896484 14.28041016 9.04896484 12.58984375 9.03515625 C11.73519531 9.02355469 10.88054687 9.01195312 10 9 C10 9.66 10 10.32 10 11 C13.63 11 17.26 11 21 11 C21 13.97 21 16.94 21 20 C17.37 20 13.74 20 10 20 C10 20.66 10 21.32 10 22 C14.29 22 18.58 22 23 22 C23.09765625 28.15234375 23.09765625 28.15234375 23 30 C22 31 22 31 19.86694336 31.11352539 C18.95050049 31.10828857 18.03405762 31.10305176 17.08984375 31.09765625 C16.199021 31.09515869 15.30819824 31.09266113 14.39038086 31.09008789 C13.25093018 31.08098389 12.11147949 31.07187988 10.9375 31.0625 C7.328125 31.041875 3.71875 31.02125 0 31 C0 20.77 0 10.54 0 0 Z " fill="#0B8ACF" transform="translate(99,187)"/>
<path d="M0 0 C3.40038985 -0.35042185 6.6145931 -0.5412406 10 0 C12.625 3 12.625 3 14 6 C14.45375 5.01 14.9075 4.02 15.375 3 C18 0 18 0 20.4921875 -0.3984375 C23.01773115 -0.37697396 25.48820963 -0.25884863 28 0 C27.3666453 3.56981738 25.8376626 5.89981833 23.8125 8.875 C21.41925254 12.65583672 21.41925254 12.65583672 21.25 17 C21.8275 17.99 22.405 18.98 23 20 C23.49242187 20.85335937 23.98484375 21.70671875 24.4921875 22.5859375 C25.95498251 25.08458735 27.45948518 27.54874057 29 30 C27.33969118 31.66030882 25.40246403 31.28918251 23.125 31.375 C20.390625 31.359375 20.390625 31.359375 18 31 C15.81817659 28.56149148 15 27.2678851 15 24 C14.34 24 13.68 24 13 24 C12.690625 24.78375 12.38125 25.5675 12.0625 26.375 C11 29 11 29 10 31 C6.7 31 3.4 31 0 31 C1.01212287 26.95150853 2.43380811 24.31072099 4.5625 20.75 C5.20316406 19.67234375 5.84382812 18.5946875 6.50390625 17.484375 C7.24447266 16.25460938 7.24447266 16.25460938 8 15 C7.4225 14.08476562 6.845 13.16953125 6.25 12.2265625 C5.4997659 11.02618795 4.74977867 9.82565908 4 8.625 C3.6184375 8.02171875 3.236875 7.4184375 2.84375 6.796875 C0 2.2265625 0 2.2265625 0 0 Z " fill="#1189CC" transform="translate(173,187)"/>
<path d="M0 0 C9.24 0 18.48 0 28 0 C27.67 2.97 27.34 5.94 27 9 C24.36 9 21.72 9 19 9 C19.00785522 9.94637329 19.00785522 9.94637329 19.01586914 10.91186523 C19.03657826 13.75373347 19.04964066 16.59558588 19.0625 19.4375 C19.07087891 20.43072266 19.07925781 21.42394531 19.08789062 22.44726562 C19.09272461 23.86362305 19.09272461 23.86362305 19.09765625 25.30859375 C19.10551147 26.62041626 19.10551147 26.62041626 19.11352539 27.95874023 C19 30 19 30 18 31 C15.03 31 12.06 31 9 31 C9 23.74 9 16.48 9 9 C6.03 9 3.06 9 0 9 C0 6.03 0 3.06 0 0 Z " fill="#0B89CF" transform="translate(210,187)"/>
<path d="M0 0 C0.99 0 1.98 0 3 0 C4.71767682 3.98188718 6.41037341 7.96479403 8 12 C8.99 12 9.98 12 11 12 C11.99 14.31 12.98 16.62 14 19 C14.33 18.34 14.66 17.68 15 17 C15.99 17.33 16.98 17.66 18 18 C17.67 18.99 17.34 19.98 17 21 C18.58411568 23.72819923 19.94179284 24.96615863 22.6875 26.5625 C25.54552864 29.57501667 25.32287237 30.69959024 25.3125 34.75 C25.23227209 36.50126074 25.13560864 38.25215533 25 40 C25.63421875 40.25523437 26.2684375 40.51046875 26.921875 40.7734375 C29 42 29 42 30.25 45.625 C30.4975 46.73875 30.745 47.8525 31 49 C31.66 49 32.32 49 33 49 C33 49.66 33 50.32 33 51 C33.99 51.33 34.98 51.66 36 52 C36.6875 54.0625 36.6875 54.0625 37 56 C37.53625 55.79375 38.0725 55.5875 38.625 55.375 C41.94282253 54.85113328 43.96997134 55.61672604 47 57 C48.375 59.125 48.375 59.125 49 61 C50.32 61 51.64 61 53 61 C53.185625 59.1128125 53.185625 59.1128125 53.375 57.1875 C53.69868059 53.89674737 54.06604999 52.90092502 56 50 C56.66 50 57.32 50 58 50 C57.979375 49.2575 57.95875 48.515 57.9375 47.75 C58.04235727 43.13627993 58.04235727 43.13627993 59 41 C61.5 39.875 61.5 39.875 64 39 C64.495 38.01 64.495 38.01 65 37 C65.66 37 66.32 37 67 37 C67 36.34 67 35.68 67 35 C67.66 35 68.32 35 69 35 C69 34.34 69 33.68 69 33 C69.66 33.33 70.32 33.66 71 34 C63 47.33333333 55 60.66666667 47 74 C43.26373514 72.75457838 42.90174298 71.65599608 40.92578125 68.328125 C40.34481689 67.36028076 39.76385254 66.39243652 39.1652832 65.39526367 C38.55386475 64.35732666 37.94244629 63.31938965 37.3125 62.25 C36.04184798 60.12619359 34.77101604 58.00249482 33.5 55.87890625 C32.8915625 54.85555176 32.283125 53.83219727 31.65625 52.77783203 C29.73849063 49.56140129 27.78425746 46.37106673 25.8125 43.1875 C22.29288544 37.48123129 18.79311228 31.76303506 15.30078125 26.04003906 C12.82492339 21.9831494 10.34321766 17.93002288 7.8515625 13.8828125 C7.08839722 12.64084106 7.08839722 12.64084106 6.30981445 11.3737793 C5.32574128 9.77259452 4.33995167 8.17246314 3.35229492 6.57348633 C0 1.11242043 0 1.11242043 0 0 Z " fill="#18C1D9" transform="translate(54,88)"/>
<path d="M0 0 C3.609375 -0.020625 7.21875 -0.04125 10.9375 -0.0625 C12.07695068 -0.071604 13.21640137 -0.08070801 14.39038086 -0.09008789 C15.28120361 -0.09258545 16.17202637 -0.09508301 17.08984375 -0.09765625 C18.46450806 -0.10551147 18.46450806 -0.10551147 19.86694336 -0.11352539 C22 0 22 0 23 1 C23.125 4.5 23.125 4.5 23 8 C22 9 22 9 19.27734375 9.09765625 C17.62412109 9.08025391 17.62412109 9.08025391 15.9375 9.0625 C14.28041016 9.04896484 14.28041016 9.04896484 12.58984375 9.03515625 C11.73519531 9.02355469 10.88054687 9.01195312 10 9 C10 9.66 10 10.32 10 11 C13.63 11 17.26 11 21 11 C21 13.97 21 16.94 21 20 C17.37 20 13.74 20 10 20 C10 20.66 10 21.32 10 22 C14.29 22 18.58 22 23 22 C23.09765625 28.15234375 23.09765625 28.15234375 23 30 C22 31 22 31 19.86694336 31.11352539 C18.95050049 31.10828857 18.03405762 31.10305176 17.08984375 31.09765625 C16.199021 31.09515869 15.30819824 31.09266113 14.39038086 31.09008789 C13.25093018 31.08098389 12.11147949 31.07187988 10.9375 31.0625 C7.328125 31.041875 3.71875 31.02125 0 31 C0 20.77 0 10.54 0 0 Z M1 2 C1 11.24 1 20.48 1 30 C7.93 30 14.86 30 22 30 C22 28.02 22 26.04 22 24 C17.05 24 12.1 24 7 24 C7.33 22.68 7.66 21.36 8 20 C8 18.68 8 17.36 8 16 C9.32 16.33 10.64 16.66 12 17 C11.67 16.01 11.34 15.02 11 14 C10.34 14 9.68 14 9 14 C8.67 11.69 8.34 9.38 8 7 C12.62 7 17.24 7 22 7 C21.67 5.35 21.34 3.7 21 2 C14.4 2 7.8 2 1 2 Z " fill="#1589CB" transform="translate(99,187)"/>
<path d="M0 0 C1.86104914 1.86104914 1.21673452 4.82036077 1.25 7.3125 C1.28867188 9.03919922 1.28867188 9.03919922 1.328125 10.80078125 C0.97322246 14.26108098 0.53443546 15.64822656 -2 18 C-4.70667219 18.69303905 -7.25853002 18.48546864 -10 18 C-12 16.625 -12 16.625 -13 15 C-13 14.34 -13 13.68 -13 13 C-12.34 13 -11.68 13 -11 13 C-11.66 12.01 -12.32 11.02 -13 10 C-13.44710264 6.497696 -13.40404695 4.66755584 -11.5625 1.625 C-7.84648245 -0.73149894 -4.29957607 -0.53199623 0 0 Z M-8 4 C-8 5.65 -8 7.3 -8 9 C-6.68 9 -5.36 9 -4 9 C-4 7.35 -4 5.7 -4 4 C-5.32 4 -6.64 4 -8 4 Z " fill="#1CA9A7" transform="translate(189,234)"/>
<path d="M0 0 C1.65 0 3.3 0 5 0 C4.67 2.64 4.34 5.28 4 8 C3.34 8 2.68 8 2 8 C1.96261719 8.69867188 1.92523438 9.39734375 1.88671875 10.1171875 C1.82097656 11.02726563 1.75523438 11.93734375 1.6875 12.875 C1.62949219 13.77992188 1.57148437 14.68484375 1.51171875 15.6171875 C1 18 1 18 -2 20 C-2.25015873 23.58357241 -2.25015873 23.58357241 -2 27 C-4.97 27 -7.94 27 -11 27 C-11.33 23.7 -11.66 20.4 -12 17 C-10.35 16.01 -8.7 15.02 -7 14 C-7 14.99 -7 15.98 -7 17 C-6.34 17 -5.68 17 -5 17 C-5.061875 16.278125 -5.12375 15.55625 -5.1875 14.8125 C-4.90277056 10.54155839 -2.9718508 7.9718508 0 5 C-0.33 4.01 -0.66 3.02 -1 2 C-0.67 1.34 -0.34 0.68 0 0 Z " fill="#0A89CE" transform="translate(81,189)"/>
<path d="M0 0 C1 3 1 3 0.5 5.4375 C-0.01333512 8.06834251 0.16441342 9.49324027 1 12 C0.030625 12.28875 -0.93875 12.5775 -1.9375 12.875 C-5.10664203 13.64214682 -5.10664203 13.64214682 -6 16 C-1.62587332 16.09991855 2.74762437 16.17195484 7.12255859 16.21972656 C8.60640048 16.23966981 10.09016555 16.2668349 11.57373047 16.30175781 C22.38542132 16.54963205 31.19897327 15.91314835 40 9 C39.34 8.67 38.68 8.34 38 8 C38.33 7.34 38.66 6.68 39 6 C39.928125 6.2784375 39.928125 6.2784375 40.875 6.5625 C43.04160178 7.23686176 43.04160178 7.23686176 45 6 C43.66359373 10.41464542 42.11417688 12.00090918 38.125 14.25 C36.82949219 15.00023438 36.82949219 15.00023438 35.5078125 15.765625 C30.57356611 18.19431948 25.93675936 18.13313307 20.515625 18.09765625 C19.70003113 18.0962413 18.88443726 18.09482635 18.04412842 18.09336853 C15.44604788 18.08778303 12.84805437 18.07523321 10.25 18.0625 C8.48567833 18.05748312 6.72135531 18.05292054 4.95703125 18.04882812 C0.63798744 18.03781835 -3.68099154 18.02056369 -8 18 C-7.34 19.11375 -6.68 20.2275 -6 21.375 C-4 24.75 -4 24.75 -4 27 C-7 26 -7 26 -9 23 C-9.99 22.34 -10.98 21.68 -12 21 C-11.505 19.515 -11.505 19.515 -11 18 C-11.38932856 15.85744207 -11.38932856 15.85744207 -12 14 C-11.67 14.66 -11.34 15.32 -11 16 C-10.34 16 -9.68 16 -9 16 C-8.74476563 15.29488281 -8.48953125 14.58976562 -8.2265625 13.86328125 C-6.88449478 10.7303652 -5.23270133 8.04285575 -3.375 5.1875 C-2.74335938 4.21167969 -2.11171875 3.23585938 -1.4609375 2.23046875 C-0.73777344 1.12638672 -0.73777344 1.12638672 0 0 Z " fill="#2ED1B7" transform="translate(190,66)"/>
<path d="M0 0 C1.32 0.33 2.64 0.66 4 1 C4.33 1.99 4.66 2.98 5 4 C5.78375 4.103125 6.5675 4.20625 7.375 4.3125 C10 5 10 5 12 8 C12.1953125 10.26171875 12.1953125 10.26171875 12.125 12.6875 C12.10695313 13.49574219 12.08890625 14.30398437 12.0703125 15.13671875 C12.03550781 16.05904297 12.03550781 16.05904297 12 17 C10.0625 17.5625 10.0625 17.5625 8 18 C7 17 7 17 6.90234375 14.93359375 C6.91974609 13.69802734 6.91974609 13.69802734 6.9375 12.4375 C6.94652344 11.61121094 6.95554687 10.78492188 6.96484375 9.93359375 C6.97644531 9.29550781 6.98804687 8.65742188 7 8 C6.01 8.495 6.01 8.495 5 9 C4.53348793 11.12576782 4.53348793 11.12576782 4.375 13.5625 C4.30023438 14.38878906 4.22546875 15.21507812 4.1484375 16.06640625 C4.09945312 16.70449219 4.05046875 17.34257812 4 18 C2.68 18 1.36 18 0 18 C0 12.06 0 6.12 0 0 Z " fill="#25A3A4" transform="translate(100,230)"/>
<path d="M0 0 C8.25 0 16.5 0 25 0 C25 1.98 25 3.96 25 6 C20.545 6.495 20.545 6.495 16 7 C15.67 8.32 15.34 9.64 15 11 C11 6.125 11 6.125 11 5 C8.36 5 5.72 5 3 5 C3 4.34 3 3.68 3 3 C2.01 2.67 1.02 2.34 0 2 C0 1.34 0 0.68 0 0 Z " fill="#0A89CF" transform="translate(211,189)"/>
<path d="M0 0 C0.79148437 -0.02578125 1.58296875 -0.0515625 2.3984375 -0.078125 C4.625 0.25 4.625 0.25 6.40234375 1.44140625 C8.05137164 3.8807031 7.92611587 5.52135943 7.8125 8.4375 C7.78542969 9.33855469 7.75835937 10.23960937 7.73046875 11.16796875 C7.69566406 11.85503906 7.66085938 12.54210937 7.625 13.25 C5.6875 13.8125 5.6875 13.8125 3.625 14.25 C2.625 13.25 2.625 13.25 2.52734375 11.18359375 C2.54474609 9.94802734 2.54474609 9.94802734 2.5625 8.6875 C2.57152344 7.86121094 2.58054687 7.03492188 2.58984375 6.18359375 C2.60144531 5.54550781 2.61304687 4.90742188 2.625 4.25 C1.635 4.745 1.635 4.745 0.625 5.25 C0.15976937 7.14533342 0.15976937 7.14533342 0 9.3125 C-0.185625 11.2615625 -0.185625 11.2615625 -0.375 13.25 C-2.3125 13.8125 -2.3125 13.8125 -4.375 14.25 C-5.375 13.25 -5.375 13.25 -5.5078125 10.5625 C-5.50523438 9.469375 -5.50265625 8.37625 -5.5 7.25 C-5.50257812 6.156875 -5.50515625 5.06375 -5.5078125 3.9375 C-5.29534354 -0.36187193 -3.91242127 0.07596935 0 0 Z " fill="#28A1A4" transform="translate(121.375,233.75)"/>
<path d="M0 0 C3.375 0.9375 3.375 0.9375 5.375 3.9375 C5.83455739 7.53736622 5.78741898 9.29412639 3.8125 12.375 C1.375 13.9375 1.375 13.9375 -2.25 13.875 C-5.625 12.9375 -5.625 12.9375 -7.625 9.9375 C-8.08455739 6.33763378 -8.03741898 4.58087361 -6.0625 1.5 C-3.625 -0.0625 -3.625 -0.0625 0 0 Z " fill="#24A9A9" transform="translate(210.625,234.0625)"/>
<path d="M0 0 C2.97 0 5.94 0 9 0 C8.33222673 6.54788791 6.44684217 12.60444811 4.5 18.875 C4.17902344 19.93203125 3.85804687 20.9890625 3.52734375 22.078125 C1.13533453 29.86466547 1.13533453 29.86466547 0 31 C-1.51928038 31.07179964 -3.04167482 31.08392007 -4.5625 31.0625 C-5.38878906 31.05347656 -6.21507813 31.04445312 -7.06640625 31.03515625 C-8.02353516 31.01775391 -8.02353516 31.01775391 -9 31 C-10.75734451 26.02638346 -12.32584613 21.2584002 -13 16 C-12.34 16 -11.68 16 -11 16 C-10.66127487 17.41538717 -10.32925376 18.83237963 -10 20.25 C-9.814375 21.03890625 -9.62875 21.8278125 -9.4375 22.640625 C-9 25 -9 25 -9 29 C-6.03 29 -3.06 29 0 29 C-0.33 26.36 -0.66 23.72 -1 21 C-0.01 20.67 0.98 20.34 2 20 C2.66 16.7 3.32 13.4 4 10 C4.66 10 5.32 10 6 10 C6 7.69 6 5.38 6 3 C4.68 2.67 3.36 2.34 2 2 C2.33 3.98 2.66 5.96 3 8 C2.01 8.33 1.02 8.66 0 9 C-1.21869929 11.50447516 -1.21869929 11.50447516 -2 14 C-3.21065165 10.36804504 -2.62784815 8.93468371 -1.5625 5.3125 C-1.27503906 4.31863281 -0.98757812 3.32476562 -0.69140625 2.30078125 C-0.46324219 1.54152344 -0.23507813 0.78226563 0 0 Z " fill="#2B86BE" transform="translate(79,187)"/>
<path d="M0 0 C2.4375 0.5 2.4375 0.5 4.25 2.0625 C5.87649865 5.4011025 5.83745291 7.83376496 5.4375 11.5 C4.3125 13.4375 4.3125 13.4375 2.4375 14.5 C-0.68061483 14.88976435 -2.67269567 15.00422245 -5.4375 13.4375 C-7.23080867 10.34902396 -6.99091969 7.98856031 -6.5625 4.5 C-4.56482274 1.61446618 -3.44820196 0.67281989 0 0 Z " fill="#29AEB1" transform="translate(73.5625,233.5)"/>
<path d="M0 0 C3.375 0.9375 3.375 0.9375 5.375 3.9375 C5.83455739 7.53736622 5.78741898 9.29412639 3.8125 12.375 C1.375 13.9375 1.375 13.9375 -2.25 13.875 C-5.625 12.9375 -5.625 12.9375 -7.625 9.9375 C-8.08455739 6.33763378 -8.03741898 4.58087361 -6.0625 1.5 C-3.625 -0.0625 -3.625 -0.0625 0 0 Z M-2.625 3.9375 C-2.625 5.9175 -2.625 7.8975 -2.625 9.9375 C-1.635 9.9375 -0.645 9.9375 0.375 9.9375 C0.375 7.9575 0.375 5.9775 0.375 3.9375 C-0.615 3.9375 -1.605 3.9375 -2.625 3.9375 Z " fill="#2C9E9E" transform="translate(140.625,234.0625)"/>
<path d="M0 0 C3.4375 0.875 3.4375 0.875 4.9375 2.5 C5.65150208 5.89150987 5.24444614 8.52306988 4.4375 11.875 C1.4375 13.875 1.4375 13.875 -2.0625 13.8125 C-5.5625 12.875 -5.5625 12.875 -7.625 10.6875 C-8.85556864 6.99579408 -8.25063585 5.32800514 -6.5625 1.875 C-3.5625 -0.125 -3.5625 -0.125 0 0 Z M-2.5625 3.875 C-2.8925 5.525 -3.2225 7.175 -3.5625 8.875 C-2.2425 9.205 -0.9225 9.535 0.4375 9.875 C1.44861093 6.82586772 1.44861093 6.82586772 0.4375 3.875 C-0.5525 3.875 -1.5425 3.875 -2.5625 3.875 Z " fill="#22A7A7" transform="translate(167.5625,234.125)"/>
<path d="M0 0 C2.97 0 5.94 0 9 0 C9 10.23 9 20.46 9 31 C6.03 31 3.06 31 0 31 C-2.0625 28.5 -2.0625 28.5 -3 26 C-2.01 26.33 -1.02 26.66 0 27 C0 27.66 0 28.32 0 29 C2.31 29 4.62 29 7 29 C7 20.09 7 11.18 7 2 C5.35 2.33 3.7 2.66 2 3 C1.67 7.29 1.34 11.58 1 16 C0.01 15.67 -0.98 15.34 -2 15 C-1.85973717 12.68715544 -1.71264442 10.37472409 -1.5625 8.0625 C-1.48128906 6.77472656 -1.40007812 5.48695313 -1.31640625 4.16015625 C-1 1 -1 1 0 0 Z " fill="#278BC5" transform="translate(153,187)"/>
<path d="M0 0 C2.9375 0.875 2.9375 0.875 4.3125 2.9375 C4.51875 3.576875 4.725 4.21625 4.9375 4.875 C3.9475 5.37 3.9475 5.37 2.9375 5.875 C3.5975 6.535 4.2575 7.195 4.9375 7.875 C4.6875 10.4375 4.6875 10.4375 3.9375 12.875 C1.13879973 14.27435013 -0.96748792 14.12765405 -4.0625 13.875 C-5.9375 12.5 -5.9375 12.5 -7.0625 10.875 C-7.0625 10.215 -7.0625 9.555 -7.0625 8.875 C-6.4025 8.545 -5.7425 8.215 -5.0625 7.875 C-5.3925 7.545 -5.7225 7.215 -6.0625 6.875 C-6.3125 4.4375 -6.3125 4.4375 -6.0625 1.875 C-3.0625 -0.125 -3.0625 -0.125 0 0 Z " fill="#16B2B1" transform="translate(226.0625,234.125)"/>
<path d="M0 0 C4.29 0 8.58 0 13 0 C13.33 1.32 13.66 2.64 14 4 C12.35 4 10.7 4 9 4 C9 7.96 9 11.92 9 16 C7.68 16.33 6.36 16.66 5 17 C4 16 4 16 3.90234375 13.27734375 C3.91394531 12.17519531 3.92554688 11.07304687 3.9375 9.9375 C3.94652344 8.83277344 3.95554687 7.72804687 3.96484375 6.58984375 C3.97644531 5.73519531 3.98804688 4.88054687 4 4 C2.35 3.67 0.7 3.34 -1 3 C-0.67 2.01 -0.34 1.02 0 0 Z " fill="#26A6A5" transform="translate(50,231)"/>
<path d="M0 0 C8 0 8 0 10.75 2.625 C11.52713499 3.73142948 12.2769332 4.857503 13 6 C13.39316406 6.57234375 13.78632813 7.1446875 14.19140625 7.734375 C15.15188902 9.13995954 16.07940962 10.56797053 17 12 C16.67 12.66 16.34 13.32 16 14 C14.68 13.67 13.36 13.34 12 13 C11.71125 11.906875 11.4225 10.81375 11.125 9.6875 C10.18106796 5.95986155 10.18106796 5.95986155 8 3 C5.69 2.67 3.38 2.34 1 2 C1 11.24 1 20.48 1 30 C3.31 30 5.62 30 8 30 C7.67 25.38 7.34 20.76 7 16 C8.32 16 9.64 16 11 16 C13.8125 18.8125 13.8125 18.8125 16 22 C15.67 22.99 15.34 23.98 15 25 C13.35 23.02 11.7 21.04 10 19 C9.67 22.96 9.34 26.92 9 31 C6.03 31 3.06 31 0 31 C0 20.77 0 10.54 0 0 Z " fill="#2F86B9" transform="translate(134,187)"/>
<path d="M0 0 C1.8125 1.3125 1.8125 1.3125 3 3 C3 3.99 3 4.98 3 6 C0.69 5.67 -1.62 5.34 -4 5 C-4 6.65 -4 8.3 -4 10 C-3.01 9.34 -2.02 8.68 -1 8 C0.32 8 1.64 8 3 8 C2.67 9.65 2.34 11.3 2 13 C-4.22680412 14.31720856 -4.22680412 14.31720856 -7.4375 13 C-9 11 -9 11 -9.5 7.5625 C-9 4 -9 4 -7.3125 1.5625 C-4.54994945 -0.30408821 -3.26764255 -0.58649994 0 0 Z " fill="#1FAAAA" transform="translate(92,234)"/>
<path d="M0 0 C3.609375 -0.020625 7.21875 -0.04125 10.9375 -0.0625 C12.07695068 -0.071604 13.21640137 -0.08070801 14.39038086 -0.09008789 C15.28120361 -0.09258545 16.17202637 -0.09508301 17.08984375 -0.09765625 C18.46450806 -0.10551147 18.46450806 -0.10551147 19.86694336 -0.11352539 C22 0 22 0 23 1 C23.04092937 3.33297433 23.04241723 5.66705225 23 8 C22.34 7.34 21.68 6.68 21 6 C21 4.68 21 3.36 21 2 C14.4 2 7.8 2 1 2 C1 11.24 1 20.48 1 30 C7.93 30 14.86 30 22 30 C22 30.33 22 30.66 22 31 C14.74 31 7.48 31 0 31 C0 20.77 0 10.54 0 0 Z " fill="#3084B9" transform="translate(99,187)"/>
<path d="M0 0 C4.42679007 1.47559669 4.91432696 3.90057368 7 8 C7 8.66 7 9.32 7 10 C4.11562221 8.70700306 2.12780579 7.34058637 0 5 C-1.38508143 7.47335969 -2.11704084 9.51693039 -2.75 12.3125 C-4.89967402 18.65403835 -8.99508012 22.99754006 -15 26 C-13.25253147 20.86161039 -10.34635218 16.45711216 -7.5 11.875 C-7.00113281 11.06417969 -6.50226563 10.25335938 -5.98828125 9.41796875 C-4.03329821 6.2470177 -2.06659593 3.0998939 0 0 Z " fill="#17DBB7" transform="translate(139,18)"/>
<path d="M0 0 C1.79068573 2.6860286 2.66055791 4.6626589 3.625 7.6875 C3.88539062 8.49574219 4.14578125 9.30398437 4.4140625 10.13671875 C4.60742188 10.75160156 4.80078125 11.36648437 5 12 C5.66 11.34 6.32 10.68 7 10 C7.625 11.8125 7.625 11.8125 8 14 C7.01 15.485 7.01 15.485 6 17 C8.64 17.33 11.28 17.66 14 18 C14 15.36 14 12.72 14 10 C14.66 10 15.32 10 16 10 C15.67 9.01 15.34 8.02 15 7 C15.66 6.01 16.32 5.02 17 4 C17.66 4 18.32 4 19 4 C18.71515154 5.73030291 18.42180062 7.45920714 18.125 9.1875 C17.96257813 10.15042969 17.80015625 11.11335937 17.6328125 12.10546875 C17.01960483 14.91032604 16.14333657 17.37224747 15 20 C11.7 20 8.4 20 5 20 C2.4186862 13.42938306 0 7.14579671 0 0 Z " fill="#118DD0" transform="translate(46,198)"/>
<path d="M0 0 C3.63 0 7.26 0 11 0 C11 2.97 11 5.94 11 9 C7.37 9 3.74 9 0 9 C0 9.66 0 10.32 0 11 C4.29 11 8.58 11 13 11 C13 13.64 13 16.28 13 19 C12.67 19 12.34 19 12 19 C12 17.02 12 15.04 12 13 C4.08 13.495 4.08 13.495 -4 14 C-3.67 12.35 -3.34 10.7 -3 9 C-3.33 8.01 -3.66 7.02 -4 6 C-3.34 5.34 -2.68 4.68 -2 4 C-1.236875 4.309375 -0.47375 4.61875 0.3125 4.9375 C3.88612016 6.35032657 6.08740912 7 10 7 C10 5.02 10 3.04 10 1 C6.7 1 3.4 1 0 1 C0 0.67 0 0.34 0 0 Z " fill="#2383BF" transform="translate(109,198)"/>
<path d="M0 0 C1.98 0.495 1.98 0.495 4 1 C4.33 6.61 4.66 12.22 5 18 C0 17 0 17 -1 16 C-1.09975032 13.48863896 -1.13882183 11.01096585 -1.125 8.5 C-1.12886719 7.79746094 -1.13273438 7.09492188 -1.13671875 6.37109375 C-1.12661378 1.12661378 -1.12661378 1.12661378 0 0 Z " fill="#20A4A4" transform="translate(151,230)"/>
<path d="M0 0 C9.24 0 18.48 0 28 0 C27.67 2.97 27.34 5.94 27 9 C24.36 9 21.72 9 19 9 C19 8.67 19 8.34 19 8 C21.31 8 23.62 8 26 8 C26 6.02 26 4.04 26 2 C17.75 2 9.5 2 1 2 C1 3.98 1 5.96 1 8 C3.31 8 5.62 8 8 8 C8 8.33 8 8.66 8 9 C5.36 9 2.72 9 0 9 C0 6.03 0 3.06 0 0 Z " fill="#338ABD" transform="translate(210,187)"/>
<path d="M0 0 C-1.52853935 4.27186525 -3.71509481 7.99326863 -6.125 11.8125 C-6.49753906 12.40998047 -6.87007812 13.00746094 -7.25390625 13.62304688 C-8.1657048 15.08426251 -9.08235976 16.54244585 -10 18 C-13.2316843 14.84236411 -15.92406338 12.04261342 -18 8 C-18 7.34 -18 6.68 -18 6 C-17.34 6 -16.68 6 -16 6 C-15.34 7.65 -14.68 9.3 -14 11 C-10.39007621 10.34414811 -10.39007621 10.34414811 -7 9 C-6.87625 8.05125 -6.7525 7.1025 -6.625 6.125 C-6 3 -6 3 -4.0625 1.125 C-2 0 -2 0 0 0 Z " fill="#2BC4C3" transform="translate(191,144)"/>
<path d="M0 0 C0.33 0 0.66 0 1 0 C1 6.6 1 13.2 1 20 C3.31 20 5.62 20 8 20 C8 13.4 8 6.8 8 0 C8.66 0 9.32 0 10 0 C10.02887814 3.47914941 10.04675687 6.95826831 10.0625 10.4375 C10.07087891 11.43072266 10.07925781 12.42394531 10.08789062 13.44726562 C10.09111328 14.39150391 10.09433594 15.33574219 10.09765625 16.30859375 C10.10289307 17.18314209 10.10812988 18.05769043 10.11352539 18.95874023 C10 21 10 21 9 22 C6.03 22 3.06 22 0 22 C0 14.74 0 7.48 0 0 Z " fill="#3289BB" transform="translate(219,196)"/>
<path d="M0 0 C0.309375 0.639375 0.61875 1.27875 0.9375 1.9375 C1.8345163 3.93610821 1.8345163 3.93610821 3 5 C3.04063832 6.66617115 3.042721 8.33388095 3 10 C2.34 9.67 1.68 9.34 1 9 C0.34 9.66 -0.32 10.32 -1 11 C-1.99 11 -2.98 11 -4 11 C-3.67 12.32 -3.34 13.64 -3 15 C-3.99 15.66 -4.98 16.32 -6 17 C-6.33 17.99 -6.66 18.98 -7 20 C-9 19 -9 19 -10 16 C-9.19555664 14.19067383 -9.19555664 14.19067383 -7.91015625 12.20703125 C-7.45576172 11.49482422 -7.00136719 10.78261719 -6.53320312 10.04882812 C-6.04787109 9.31083984 -5.56253906 8.57285156 -5.0625 7.8125 C-4.58103516 7.06291016 -4.09957031 6.31332031 -3.60351562 5.54101562 C-2.4113798 3.6878936 -1.21003348 1.84146534 0 0 Z " fill="#15D3BF" transform="translate(123,44)"/>
<path d="M0 0 C1.32 0 2.64 0 4 0 C4 5.28 4 10.56 4 16 C2.68 16.33 1.36 16.66 0 17 C-1.13130884 13.60607349 -1.1329194 10.94665128 -1.125 7.375 C-1.12886719 5.62316406 -1.12886719 5.62316406 -1.1328125 3.8359375 C-1 1 -1 1 0 0 Z " fill="#2EA5A6" transform="translate(195,231)"/>
<path d="M0 0 C0.99 0.33 1.98 0.66 3 1 C2.34 1 1.68 1 1 1 C0.34 3.31 -0.32 5.62 -1 8 C-0.01 8.33 0.98 8.66 2 9 C1.67 10.65 1.34 12.3 1 14 C-4.75 14.125 -4.75 14.125 -7 13 C-6.75 9.625 -6.75 9.625 -6 6 C-4.0625 4.8125 -4.0625 4.8125 -2 4 C-0.73195434 1.9664052 -0.73195434 1.9664052 0 0 Z " fill="#0888D0" transform="translate(59,202)"/>
<path d="M0 0 C0.83778992 0.00141495 1.67557983 0.0028299 2.53875732 0.00428772 C5.20816657 0.00987428 7.8774912 0.02242431 10.546875 0.03515625 C12.35937379 0.04017299 14.17187389 0.04473559 15.984375 0.04882812 C20.42190748 0.05983931 24.85937691 0.0770947 29.296875 0.09765625 C27.24330357 6.68694196 27.24330357 6.68694196 24.296875 9.09765625 C24.296875 7.44765625 24.296875 5.79765625 24.296875 4.09765625 C24.956875 4.09765625 25.616875 4.09765625 26.296875 4.09765625 C26.296875 3.43765625 26.296875 2.77765625 26.296875 2.09765625 C21.93693433 2.07292925 17.57703086 2.05478344 13.21704102 2.04272461 C11.73396087 2.03769722 10.25088567 2.0308744 8.76782227 2.0222168 C6.63556699 2.01008143 4.50337727 2.004412 2.37109375 2 C1.08807373 1.99476318 -0.19494629 1.98952637 -1.5168457 1.98413086 C-4.7257224 1.94838449 -4.7257224 1.94838449 -7.703125 3.09765625 C-10.03612325 3.13719859 -12.37020689 3.14167357 -14.703125 3.09765625 C-10.68812437 -0.91734438 -5.3686522 -0.03418525 0 0 Z " fill="#32D9A1" transform="translate(238.703125,17.90234375)"/>
<path d="M0 0 C3.375 0.3125 3.375 0.3125 7 1 C9.32749345 4.49124017 9.50299316 5.89222251 9 10 C7.4375 12.4375 7.4375 12.4375 5 14 C1.25 13.75 1.25 13.75 -2 13 C-2 12.01 -2 11.02 -2 10 C0.31 10.66 2.62 11.32 5 12 C5 11.34 5 10.68 5 10 C5.66 10 6.32 10 7 10 C4.9927092 6.9890638 4.16115776 6.36983503 1 5 C1.99 5 2.98 5 4 5 C4 3.68 4 2.36 4 1 C2.35 1.33 0.7 1.66 -1 2 C-0.67 1.34 -0.34 0.68 0 0 Z " fill="#23A4A5" transform="translate(207,234)"/>
<path d="M0 0 C2.63884562 2.40111178 4.36413529 5.00555028 6.1875 8.0625 C6.71730469 8.94035156 7.24710938 9.81820312 7.79296875 10.72265625 C9 13 9 13 9 15 C8.01 15 7.02 15 6 15 C5.67 14.01 5.34 13.02 5 12 C2.69 11.67 0.38 11.34 -2 11 C-2.20086443 7.28400809 -2.1519437 6.22791555 0 3 C0 2.01 0 1.02 0 0 Z " fill="#17D9B4" transform="translate(146,28)"/>
<path d="M0 0 C0.66 0.33 1.32 0.66 2 1 C0.00994978 4.33936458 -1.99254251 7.67107155 -4 11 C-4.34756348 11.57733887 -4.69512695 12.15467773 -5.05322266 12.74951172 C-6.13561817 14.54381837 -7.22340617 16.3347527 -8.3125 18.125 C-8.98925781 19.24132812 -9.66601562 20.35765625 -10.36328125 21.5078125 C-10.90339844 22.33023438 -11.44351563 23.15265625 -12 24 C-12.33 24 -12.66 24 -13 24 C-13.125 18.25 -13.125 18.25 -12 16 C-11.34 16 -10.68 16 -10 16 C-8.92474806 13.34771188 -7.90543849 10.71631546 -7 8 C-6.34 7.67 -5.68 7.34 -5 7 C-4.67 6.01 -4.34 5.02 -4 4 C-3.01 4 -2.02 4 -1 4 C-0.67 2.68 -0.34 1.36 0 0 Z " fill="#25C7C7" transform="translate(138,97)"/>
<path d="M0 0 C3.63 0 7.26 0 11 0 C13.28571429 8.42857143 13.28571429 8.42857143 13 13 C12.01 13 11.02 13 10 13 C9.4465236 10.92446352 9 9.15634036 9 7 C8.34 8.32 7.68 9.64 7 11 C6.34 11 5.68 11 5 11 C4.75 5.375 4.75 5.375 7 2 C4.69 1.67 2.38 1.34 0 1 C0 0.67 0 0.34 0 0 Z " fill="#1788C1" transform="translate(61,187)"/>
<path d="M0 0 C0.57492188 0.23074219 1.14984375 0.46148438 1.7421875 0.69921875 C1.7421875 2.69921875 1.7421875 2.69921875 -0.1328125 4.82421875 C-2.2578125 6.69921875 -2.2578125 6.69921875 -4.2578125 6.69921875 C-4.2578125 7.35921875 -4.2578125 8.01921875 -4.2578125 8.69921875 C-6.2378125 9.68921875 -6.2378125 9.68921875 -8.2578125 10.69921875 C-8.2578125 10.03921875 -8.2578125 9.37921875 -8.2578125 8.69921875 C-10.2378125 9.68921875 -10.2378125 9.68921875 -12.2578125 10.69921875 C-10.82540562 7.36924193 -9.07544726 5.29992915 -6.3828125 2.88671875 C-5.36574219 1.94892578 -5.36574219 1.94892578 -4.328125 0.9921875 C-2.2578125 -0.30078125 -2.2578125 -0.30078125 0 0 Z " fill="#05E9A6" transform="translate(224.2578125,21.30078125)"/>
<path d="M0 0 C-1.32 0.33 -2.64 0.66 -4 1 C-4 1.66 -4 2.32 -4 3 C-2.68 3.33 -1.36 3.66 0 4 C-1.32 4 -2.64 4 -4 4 C-4 5.65 -4 7.3 -4 9 C-4.33 9 -4.66 9 -5 9 C-5 7.02 -5 5.04 -5 3 C-5.66 3 -6.32 3 -7 3 C-6.34 7.62 -5.68 12.24 -5 17 C-2.69 17 -0.38 17 2 17 C2 17.33 2 17.66 2 18 C-5.4659249 18.36717663 -5.4659249 18.36717663 -8 16.625 C-9 15 -9 15 -9 13 C-8.34 13 -7.68 13 -7 13 C-7.66 12.01 -8.32 11.02 -9 10 C-9.46649698 6.34577364 -9.46996298 4.66142938 -7.3125 1.625 C-4.61209763 -0.27258004 -3.22939919 -0.35882213 0 0 Z " fill="#2BA4A4" transform="translate(185,234)"/>
<path d="M0 0 C2.96926381 3.55391974 5.42318536 7.18517995 7.75 11.1875 C8.67039063 12.75564453 8.67039063 12.75564453 9.609375 14.35546875 C11 17 11 17 11 19 C10.01 18.67 9.02 18.34 8 18 C8 17.34 8 16.68 8 16 C7.01 15.67 6.02 15.34 5 15 C5.33 13.68 5.66 12.36 6 11 C4.35 11.33 2.7 11.66 1 12 C0.67 8.04 0.34 4.08 0 0 Z " fill="#19D8B4" transform="translate(159,48)"/>
<path d="M0 0 C2.4375 0.75 2.4375 0.75 4.4375 2.75 C4.5625 5.375 4.5625 5.375 4.4375 7.75 C3.4475 7.75 2.4575 7.75 1.4375 7.75 C1.4375 6.1 1.4375 4.45 1.4375 2.75 C0.1175 2.75 -1.2025 2.75 -2.5625 2.75 C-2.2325 5.39 -1.9025 8.03 -1.5625 10.75 C-2.8825 10.42 -4.2025 10.09 -5.5625 9.75 C-5.85546875 3.6953125 -5.85546875 3.6953125 -5.5625 1.75 C-2.5625 -0.25 -2.5625 -0.25 0 0 Z " fill="#1BABAE" transform="translate(140.5625,235.25)"/>
<path d="M0 0 C3.40038985 -0.35042185 6.6145931 -0.5412406 10 0 C12.625 3 12.625 3 14 6 C14.99 5.34 15.98 4.68 17 4 C16.67 5.32 16.34 6.64 16 8 C14.35 8 12.7 8 11 8 C10.67 6.35 10.34 4.7 10 3 C8.02 3 6.04 3 4 3 C3.67 4.32 3.34 5.64 3 7 C0 2.25 0 2.25 0 0 Z " fill="#2886BD" transform="translate(173,187)"/>
<path d="M0 0 C2.05078125 0.03255208 4.1015625 0.06510417 6.15234375 0.09765625 C6.65992237 1.51162527 7.158093 2.92897354 7.65234375 4.34765625 C7.93078125 5.1365625 8.20921875 5.92546875 8.49609375 6.73828125 C9.15234375 9.09765625 9.15234375 9.09765625 9.15234375 13.09765625 C8.49234375 13.09765625 7.83234375 13.09765625 7.15234375 13.09765625 C6.49234375 9.79765625 5.83234375 6.49765625 5.15234375 3.09765625 C4.16234375 3.09765625 3.17234375 3.09765625 2.15234375 3.09765625 C1.49234375 5.40765625 0.83234375 7.71765625 0.15234375 10.09765625 C-1.4920453 7.13775596 -2.39327576 4.46007188 -2.84765625 1.09765625 C-1.84765625 0.09765625 -1.84765625 0.09765625 0 0 Z " fill="#2C88BC" transform="translate(45.84765625,186.90234375)"/>
<path d="M0 0 C2 0 2 0 3.5 1.1875 C6.04023195 4.25694694 7 7.03507037 7 11 C7.61875 11.185625 8.2375 11.37125 8.875 11.5625 C12.05602866 13.71437233 12.19451947 16.37533763 13 20 C13.66 20 14.32 20 15 20 C14.67 21.32 14.34 22.64 14 24 C8.84738256 16.20933223 3.90379706 8.51380867 0 0 Z " fill="#33BECF" transform="translate(72,117)"/>
<path d="M0 0 C2.66142497 2.46488897 4.63426384 5.20449652 6.6875 8.1875 C7.31011719 9.08855469 7.93273437 9.98960938 8.57421875 10.91796875 C9.04472656 11.60503906 9.51523438 12.29210937 10 13 C12.97 8.545 12.97 8.545 16 4 C17 7 17 7 15.75 10.0625 C14 13 14 13 11 15 C10.01 15 9.02 15 8 15 C8 14.34 8 13.68 8 13 C7.34 13 6.68 13 6 13 C6 12.01 6 11.02 6 10 C5.34 10 4.68 10 4 10 C4 9.01 4 8.02 4 7 C3.01 6.67 2.02 6.34 1 6 C0.67 4.02 0.34 2.04 0 0 Z " fill="#32C7C3" transform="translate(90,68)"/>
<path d="M0 0 C1.98 0 3.96 0 6 0 C6.33 0.66 6.66 1.32 7 2 C6.01 2.495 6.01 2.495 5 3 C4.53476937 4.89533342 4.53476937 4.89533342 4.375 7.0625 C4.189375 9.0115625 4.189375 9.0115625 4 11 C3.01 11 2.02 11 1 11 C-0.28317892 7.15046324 -0.06643637 4.05261865 0 0 Z " fill="#1BA8A6" transform="translate(117,236)"/>
<path d="M0 0 C0.66 0 1.32 0 2 0 C1.71515154 1.73030291 1.42180062 3.45920714 1.125 5.1875 C0.96257813 6.15042969 0.80015625 7.11335937 0.6328125 8.10546875 C0.01960483 10.91032604 -0.85666343 13.37224747 -2 16 C-5.3 16 -8.6 16 -12 16 C-12.33 15.34 -12.66 14.68 -13 14 C-9.7 14.33 -6.4 14.66 -3 15 C-3 12.03 -3 9.06 -3 6 C-2.34 6 -1.68 6 -1 6 C-1.33 5.01 -1.66 4.02 -2 3 C-1.34 2.01 -0.68 1.02 0 0 Z " fill="#2484C4" transform="translate(63,202)"/>
<path d="M0 0 C3 1 3 1 4.0625 3 C4.371875 3.66 4.68125 4.32 5 5 C5.66 5.33 6.32 5.66 7 6 C7 6.99 7 7.98 7 9 C7.66 9.33 8.32 9.66 9 10 C8.34 10 7.68 10 7 10 C7.33 11.65 7.66 13.3 8 15 C5.73192622 12.86495107 3.98935519 10.68604821 2.3125 8.0625 C1.87550781 7.39347656 1.43851562 6.72445312 0.98828125 6.03515625 C0 4 0 4 0 0 Z " fill="#29BFD8" transform="translate(87,139)"/>
<path d="M0 0 C2.98299727 4.4744959 2.49217039 8.75018254 2 14 C1.22783925 16.85654845 0.22633694 19.29183926 -1 22 C-1.33 22 -1.66 22 -2 22 C-1.5140207 14.6379306 -1.02325928 7.30899482 0 0 Z " fill="#2DC6C2" transform="translate(198,114)"/>
<path d="M0 0 C0.99 0 1.98 0 3 0 C4.71767682 3.98188718 6.41037341 7.96479403 8 12 C8.99 12 9.98 12 11 12 C11.48198463 13.24891614 11.96045677 14.49918808 12.4375 15.75 C12.70433594 16.44609375 12.97117187 17.1421875 13.24609375 17.859375 C13.96146693 19.89059003 14.51365652 21.9035291 15 24 C11.21081651 19.5612422 8.26058022 14.72812477 5.25 9.75 C4.49009766 8.50863281 4.49009766 8.50863281 3.71484375 7.2421875 C0 1.13422338 0 1.13422338 0 0 Z " fill="#36BFC9" transform="translate(54,88)"/>
<path d="M0 0 C0.99 0.33 1.98 0.66 3 1 C-0.63 6.94 -4.26 12.88 -8 19 C-9.25541557 15.23375329 -8.37061958 13.62811066 -7 10 C-6.01 10 -5.02 10 -4 10 C-4 8.35 -4 6.7 -4 5 C-3.34 5 -2.68 5 -2 5 C-2 4.01 -2 3.02 -2 2 C-1.34 2 -0.68 2 0 2 C0 1.34 0 0.68 0 0 Z " fill="#30D4AA" transform="translate(250,44)"/>
<path d="M0 0 C12.54 0 25.08 0 38 0 C38 0.33 38 0.66 38 1 C36.95021973 1.01981934 35.90043945 1.03963867 34.81884766 1.06005859 C30.93106739 1.13602198 27.04366597 1.22475298 23.15625 1.31738281 C21.47240671 1.35571104 19.78848045 1.39055712 18.10449219 1.421875 C15.68654694 1.46744287 13.26917472 1.52544923 10.8515625 1.5859375 C9.71867294 1.60326431 9.71867294 1.60326431 8.56289673 1.62094116 C4.32174802 1.60330066 4.32174802 1.60330066 1 4 C0.67 2.68 0.34 1.36 0 0 Z " fill="#31C0B8" transform="translate(12,18)"/>
<path d="M0 0 C0.66 0 1.32 0 2 0 C2 0.66 2 1.32 2 2 C2.66 2 3.32 2 4 2 C4.103125 2.639375 4.20625 3.27875 4.3125 3.9375 C4.539375 4.618125 4.76625 5.29875 5 6 C5.99 6.33 6.98 6.66 8 7 C9.8125 9.3125 9.8125 9.3125 11 12 C10.07421875 14.16796875 10.07421875 14.16796875 9 16 C7.49445366 13.71180854 5.99542957 11.41978831 4.5 9.125 C4.07074219 8.47402344 3.64148438 7.82304687 3.19921875 7.15234375 C0 2.2265625 0 2.2265625 0 0 Z " fill="#2EC3CA" transform="translate(163,134)"/>
<path d="M0 0 C0.99 0.33 1.98 0.66 3 1 C2.67 2.98 2.34 4.96 2 7 C3.98 7 5.96 7 8 7 C8 7.66 8 8.32 8 9 C5.29120665 10.35439668 2.99066732 10.06501451 0 10 C-1.125 2.25 -1.125 2.25 0 0 Z " fill="#13AEAB" transform="translate(69,237)"/>
<path d="M0 0 C-0.33 0.66 -0.66 1.32 -1 2 C-2.65 1.67 -4.3 1.34 -6 1 C-5.67 2.98 -5.34 4.96 -5 7 C-5.99 7.33 -6.98 7.66 -8 8 C-9.21869929 10.50447516 -9.21869929 10.50447516 -10 13 C-11.07999887 9.7600034 -10.92129428 8.61636465 -10.1875 5.375 C-10.01605469 4.57835937 -9.84460938 3.78171875 -9.66796875 2.9609375 C-8.19912356 -1.35111096 -3.86005852 -0.07148257 0 0 Z " fill="#218BC9" transform="translate(87,188)"/>
<path d="M0 0 C1.32 0.66 2.64 1.32 4 2 C4 3.32 4 4.64 4 6 C4.66 6.33 5.32 6.66 6 7 C6.625 9.0625 6.625 9.0625 7 11 C6.01 11.33 5.02 11.66 4 12 C3.13058506 10.76055724 2.27994543 9.50792941 1.4375 8.25 C0.96183594 7.55390625 0.48617187 6.8578125 -0.00390625 6.140625 C-1 4 -1 4 -0.65234375 1.734375 C-0.43707031 1.16203125 -0.22179688 0.5896875 0 0 Z " fill="#0CC8D6" transform="translate(58,88)"/>
<path d="M0 0 C1 3 1 3 0.5 5.4375 C-0.01333512 8.06834251 0.16441342 9.49324027 1 12 C0.071875 12.268125 -0.85625 12.53625 -1.8125 12.8125 C-4.76240366 13.91148371 -6.05615186 14.62418561 -8 17 C-7.1875 14.5625 -7.1875 14.5625 -6 12 C-5.01 11.67 -4.02 11.34 -3 11 C-3.061875 10.113125 -3.12375 9.22625 -3.1875 8.3125 C-2.98048018 4.65514983 -2.083926 2.95222849 0 0 Z " fill="#14D7BA" transform="translate(190,66)"/>
<path d="M0 0 C2.3125 -0.25 2.3125 -0.25 5 0 C7.77334669 2.39081611 7.98943126 3.899597 8.375 7.5625 C8 11 8 11 6.875 12.9375 C4.214973 14.44484863 1.99793795 14.19986253 -1 14 C-1 13.67 -1 13.34 -1 13 C2.465 12.505 2.465 12.505 6 12 C6.33 10.35 6.66 8.7 7 7 C6.01 6.67 5.02 6.34 4 6 C4.33 5.01 4.66 4.02 5 3 C2.525 2.01 2.525 2.01 0 1 C0 0.67 0 0.34 0 0 Z " fill="#2F9D9D" transform="translate(71,234)"/>
<path d="M0 0 C1.70840281 1.63412443 2.93453047 2.86906094 4 5 C4.04022391 7.3329866 4.04320247 9.66706666 4 12 C3.01 12.33 2.02 12.66 1 13 C-0.00496852 9.98509443 -0.10335303 7.95818308 -0.0625 4.8125 C-0.05347656 3.91144531 -0.04445312 3.01039062 -0.03515625 2.08203125 C-0.02355469 1.39496094 -0.01195312 0.70789063 0 0 Z " fill="#16D1BE" transform="translate(194,106)"/>
<path d="M0 0 C8.07390158 0.76894301 12.64877665 5.39395649 18 11 C17.67 11.66 17.34 12.32 17 13 C14 11.1875 14 11.1875 11 9 C11 8.01 11 7.02 11 6 C10.34 6 9.68 6 9 6 C9 5.34 9 4.68 9 4 C7.68 4 6.36 4 5 4 C5 3.34 5 2.68 5 2 C3.35 1.67 1.7 1.34 0 1 C0 0.67 0 0.34 0 0 Z " fill="#2DCBB9" transform="translate(50,19)"/>
<path d="M0 0 C1.15392455 2.3078491 1.53437166 4.47230331 2 7 C-0.55991624 9.01136276 -3.04590299 10.62845496 -6 12 C-6 12.99 -6 13.98 -6 15 C-6.66 15 -7.32 15 -8 15 C-6.62712658 11.30123909 -4.93644547 8.0485524 -2.875 4.6875 C-2.33617187 3.80449219 -1.79734375 2.92148437 -1.2421875 2.01171875 C-0.83226562 1.34785156 -0.42234375 0.68398438 0 0 Z " fill="#27D7B0" transform="translate(203,45)"/>
<path d="M0 0 C0.66 0.33 1.32 0.66 2 1 C0.52520827 3.50267687 -0.95455064 6.00216421 -2.4375 8.5 C-2.85837891 9.21542969 -3.27925781 9.93085937 -3.71289062 10.66796875 C-4.78084102 12.46212541 -5.88734761 14.23321738 -7 16 C-7.33 16 -7.66 16 -8 16 C-8.35858439 12.14521782 -8.2754818 10.42240542 -6.125 7.125 C-5.42375 6.42375 -4.7225 5.7225 -4 5 C-3.34 5 -2.68 5 -2 5 C-2 4.01 -2 3.02 -2 2 C-1.34 2 -0.68 2 0 2 C0 1.34 0 0.68 0 0 Z " fill="#2CDAA3" transform="translate(261,28)"/>
<path d="M0 0 C0.99 0.33 1.98 0.66 3 1 C2.67 5.62 2.34 10.24 2 15 C1.34 15 0.68 15 0 15 C0 10.05 0 5.1 0 0 Z " fill="#10AFAE" transform="translate(101,232)"/>
<path d="M0 0 C1.33332095 2.6666419 0.67102033 4.16680303 0 7 C-0.66 7 -1.32 7 -2 7 C-2 7.66 -2 8.32 -2 9 C-2.66 9 -3.32 9 -4 9 C-4.0825 9.78375 -4.165 10.5675 -4.25 11.375 C-5 14 -5 14 -7.0625 15.3125 C-8.0215625 15.6528125 -8.0215625 15.6528125 -9 16 C-7.56691865 12.04093183 -5.66858051 8.71281819 -3.375 5.1875 C-2.74335938 4.21167969 -2.11171875 3.23585938 -1.4609375 2.23046875 C-0.73777344 1.12638672 -0.73777344 1.12638672 0 0 Z " fill="#2ED1B4" transform="translate(133,28)"/>
<path d="M0 0 C0.99 0.66 1.98 1.32 3 2 C2.625 4.4375 2.625 4.4375 2 7 C-0.79870027 8.39935013 -2.90498792 8.25265405 -6 8 C-7.875 6.625 -7.875 6.625 -9 5 C-9 4.34 -9 3.68 -9 3 C-7.68 3.33 -6.36 3.66 -5 4 C-5.33 4.66 -5.66 5.32 -6 6 C-3.69 6 -1.38 6 1 6 C0.67 4.02 0.34 2.04 0 0 Z " fill="#33AAA9" transform="translate(228,240)"/>
<path d="M0 0 C3.3 0 6.6 0 10 0 C9.04065919 3.83736322 8.76390737 4.59660228 6 7 C6 5.68 6 4.36 6 3 C2.37114676 2.84850702 2.37114676 2.84850702 -1 4 C-0.67 2.68 -0.34 1.36 0 0 Z " fill="#3186B7" transform="translate(191,187)"/>
<path d="M0 0 C0.66 0 1.32 0 2 0 C2 1.98 2 3.96 2 6 C3.32 6 4.64 6 6 6 C6.33 4.35 6.66 2.7 7 1 C7.33 1 7.66 1 8 1 C8.125 3.875 8.125 3.875 8 7 C7.34 7.66 6.68 8.32 6 9 C1.44444444 8.44444444 1.44444444 8.44444444 0 7 C-0.04092937 4.66702567 -0.04241723 2.33294775 0 0 Z " fill="#15A7A3" transform="translate(178,237)"/>
<path d="M0 0 C2.9375 0.875 2.9375 0.875 4.3125 2.9375 C4.51875 3.576875 4.725 4.21625 4.9375 4.875 C3.6175 5.205 2.2975 5.535 0.9375 5.875 C0.9375 5.215 0.9375 4.555 0.9375 3.875 C-1.5375 2.885 -1.5375 2.885 -4.0625 1.875 C-4.0625 3.855 -4.0625 5.835 -4.0625 7.875 C-4.7225 7.545 -5.3825 7.215 -6.0625 6.875 C-6.25 4.5 -6.25 4.5 -6.0625 1.875 C-3.0625 -0.125 -3.0625 -0.125 0 0 Z " fill="#2EA8A3" transform="translate(226.0625,234.125)"/>
<path d="M0 0 C0.99 0 1.98 0 3 0 C3.33 0.99 3.66 1.98 4 3 C4.845625 3.78375 5.69125 4.5675 6.5625 5.375 C9 8 9 8 9.3125 10.8125 C9.1578125 11.8953125 9.1578125 11.8953125 9 13 C4.76568424 9.39299028 2.5307901 4.85413839 0 0 Z " fill="#2BCACE" transform="translate(34,56)"/>
<path d="M0 0 C2.97 0.495 2.97 0.495 6 1 C5.74438677 3.3431213 5.40729228 5.67843403 5 8 C4.01 8.495 4.01 8.495 3 9 C2.01 6.03 1.02 3.06 0 0 Z " fill="#0BC2DD" transform="translate(82,128)"/>
<path d="M0 0 C0.99 0.33 1.98 0.66 3 1 C3 2.32 3 3.64 3 5 C4.32 4.67 5.64 4.34 7 4 C8.43088528 6.86177057 7.59991697 8.93375773 7 12 C3.66488612 9.0098979 1.78478881 6.10501426 0 2 C0 1.34 0 0.68 0 0 Z " fill="#26CBC2" transform="translate(14,22)"/>
<path d="M0 0 C0.33 0 0.66 0 1 0 C1.04898438 0.71027344 1.09796875 1.42054688 1.1484375 2.15234375 C1.22320312 3.07144531 1.29796875 3.99054688 1.375 4.9375 C1.44460937 5.85402344 1.51421875 6.77054688 1.5859375 7.71484375 C1.72257812 8.46894531 1.85921875 9.22304687 2 10 C2.66 10.33 3.32 10.66 4 11 C4 7.7 4 4.4 4 1 C4.33 1 4.66 1 5 1 C5 4.63 5 8.26 5 12 C3.68 12.33 2.36 12.66 1 13 C0 12 0 12 -0.09765625 9.27734375 C-0.08605469 8.17519531 -0.07445312 7.07304687 -0.0625 5.9375 C-0.05347656 4.83277344 -0.04445312 3.72804687 -0.03515625 2.58984375 C-0.02355469 1.73519531 -0.01195312 0.88054687 0 0 Z " fill="#35A3A1" transform="translate(54,235)"/>
<path d="M0 0 C0.66 0 1.32 0 2 0 C6 6.75 6 6.75 6 9 C6.66 9 7.32 9 8 9 C8 8.34 8 7.68 8 7 C8.66 7 9.32 7 10 7 C9.34 8.65 8.68 10.3 8 12 C4.72257902 8.89973691 2.06895163 6.02901106 0 2 C0 1.34 0 0.68 0 0 Z " fill="#39BDC1" transform="translate(173,150)"/>
<path d="M0 0 C0.66 0 1.32 0 2 0 C3.17571451 3.67410785 3.07366746 7.16929183 3 11 C2.01 10.67 1.02 10.34 0 10 C0 6.7 0 3.4 0 0 Z " fill="#11B3AE" transform="translate(55,235)"/>
<path d="M0 0 C3 1 3 1 5 4 C5.66 4 6.32 4 7 4 C6.6875 6.875 6.6875 6.875 6 10 C5.01 10.66 4.02 11.32 3 12 C3.2475 11.46375 3.495 10.9275 3.75 10.375 C4.1333252 6.73341059 2.06717306 4.88151397 0 2 C0 1.34 0 0.68 0 0 Z " fill="#258AC2" transform="translate(177,194)"/>
<path d="M0 0 C1.32 0 2.64 0 4 0 C5.15957207 3.47871621 4.77456651 4.34219645 3.5625 7.6875 C3.13130859 8.89986328 3.13130859 8.89986328 2.69140625 10.13671875 C2.46324219 10.75160156 2.23507813 11.36648437 2 12 C0.9375 10.125 0.9375 10.125 0 8 C0.33 7.34 0.66 6.68 1 6 C0.71887936 3.99199544 0.38932033 1.98985949 0 0 Z " fill="#08C4DB" transform="translate(105,137)"/>
<path d="M0 0 C2.30874711 2.16614803 4.05290181 4.39206608 5.75 7.0625 C6.19859375 7.75472656 6.6471875 8.44695312 7.109375 9.16015625 C7.40328125 9.76730469 7.6971875 10.37445313 8 11 C7.67 11.66 7.34 12.32 7 13 C6.34 12.67 5.68 12.34 5 12 C5 11.01 5 10.02 5 9 C4.360625 8.814375 3.72125 8.62875 3.0625 8.4375 C1 7 1 7 0.25 3.375 C0.1675 2.26125 0.085 1.1475 0 0 Z " fill="#2ECAB8" transform="translate(186,93)"/>
<path d="M0 0 C0 0.66 0 1.32 0 2 C-0.78375 2.4125 -1.5675 2.825 -2.375 3.25 C-5.6733333 5.44888887 -6.07871568 7.23110958 -7 11 C-7.33 10.34 -7.66 9.68 -8 9 C-9.98 9.99 -9.98 9.99 -12 11 C-10.5611898 7.612801 -8.77880501 5.6405896 -6 3.25 C-5.29875 2.63640625 -4.5975 2.0228125 -3.875 1.390625 C-2 0 -2 0 0 0 Z " fill="#30D8A7" transform="translate(224,21)"/>
<path d="M0 0 C7 8.44827586 7 8.44827586 7 12 C6.01 11.67 5.02 11.34 4 11 C4 10.34 4 9.68 4 9 C3.01 8.67 2.02 8.34 1 8 C1.33 6.68 1.66 5.36 2 4 C1.34 4 0.68 4 0 4 C0 2.68 0 1.36 0 0 Z " fill="#2AD0B6" transform="translate(163,55)"/>
<path d="M0 0 C0.66 0.66 1.32 1.32 2 2 C0.4375 4.0625 0.4375 4.0625 -2 6 C-5.75 5.75 -5.75 5.75 -9 5 C-9 4.01 -9 3.02 -9 2 C-6.69 2.66 -4.38 3.32 -2 4 C-2 3.34 -2 2.68 -2 2 C-1.34 2 -0.68 2 0 2 C0 1.34 0 0.68 0 0 Z " fill="#31A9A6" transform="translate(214,242)"/>
<path d="M0 0 C0.763125 0.495 1.52625 0.99 2.3125 1.5 C4.92363751 3.24368308 4.92363751 3.24368308 8 3 C7.34 4.65 6.68 6.3 6 8 C2.24623848 6.74874616 1.75926711 5.4347596 0 2 C0 1.34 0 0.68 0 0 Z " fill="#3ABAD0" transform="translate(95,154)"/>
<path d="M0 0 C0.66 0 1.32 0 2 0 C2.33 0.99 2.66 1.98 3 3 C4.98 3 6.96 3 9 3 C8.01 3.495 8.01 3.495 7 4 C7 4.66 7 5.32 7 6 C5.00045254 6.04254356 2.99958364 6.04080783 1 6 C0 5 0 5 -0.0625 2.4375 C-0.041875 1.633125 -0.02125 0.82875 0 0 Z " fill="#12AEAD" transform="translate(205,240)"/>
<path d="M0 0 C2.94721162 2.74395564 5.19168608 5.38337216 7 9 C6.67 9.66 6.34 10.32 6 11 C4.68 10.01 3.36 9.02 2 8 C2.33 7.01 2.66 6.02 3 5 C2.01 5 1.02 5 0 5 C0 3.35 0 1.7 0 0 Z " fill="#27C9BE" transform="translate(80,52)"/>
<path d="M0 0 C2.75861118 4.13791677 4.27302852 6.71703018 4.125 11.75 C4.10695313 12.54921875 4.08890625 13.3484375 4.0703125 14.171875 C4.03550781 15.07679688 4.03550781 15.07679688 4 16 C2.60025314 13.36518239 1.58775959 10.89629292 0.875 8 C0.70742188 7.34 0.53984375 6.68 0.3671875 6 C0 4 0 4 0 0 Z " fill="#2C89BF" transform="translate(46,198)"/>
<path d="M0 0 C0.66 0 1.32 0 2 0 C2.0825 0.5775 2.165 1.155 2.25 1.75 C3.2026631 4.60798931 4.86053074 5.92954588 7 8 C7 8.66 7 9.32 7 10 C4 9 4 9 2 6 C1.01 5.34 0.02 4.68 -1 4 C-0.67 2.68 -0.34 1.36 0 0 Z " fill="#20CFBB" transform="translate(179,83)"/>
<path d="M0 0 C2.63744638 1.31872319 3.20619668 2.8111975 4.625 5.375 C5.07101563 6.16648437 5.51703125 6.95796875 5.9765625 7.7734375 C7 10 7 10 7 13 C4 11 4 11 3 8 C2.34 7.67 1.68 7.34 1 7 C0.59270772 4.67843403 0.25561323 2.3431213 0 0 Z " fill="#2FCEB8" transform="translate(170,67)"/>
<path d="M0 0 C4.42679007 1.47559669 4.91432696 3.90057368 7 8 C7 8.66 7 9.32 7 10 C5.0625 9.375 5.0625 9.375 3 8 C2.25 4.875 2.25 4.875 2 2 C1.34 2 0.68 2 0 2 C0 1.34 0 0.68 0 0 Z " fill="#2DD1AB" transform="translate(139,18)"/>
<path d="M0 0 C4.49652778 -0.36458333 4.49652778 -0.36458333 6.8125 1.3125 C8 3 8 3 8 6 C6.68 6 5.36 6 4 6 C3.896875 5.38125 3.79375 4.7625 3.6875 4.125 C3.12474627 1.63473516 3.12474627 1.63473516 0 0 Z " fill="#28A2A0" transform="translate(87,234)"/>
<path d="M0 0 C0.33 0 0.66 0 1 0 C1 1.65 1 3.3 1 5 C-0.32 5.33 -1.64 5.66 -3 6 C-3 6.66 -3 7.32 -3 8 C-3.66 8 -4.32 8 -5 8 C-5.66 6.68 -6.32 5.36 -7 4 C-6.21625 3.855625 -5.4325 3.71125 -4.625 3.5625 C-2.03578982 3.12201075 -2.03578982 3.12201075 0 2 C0 1.34 0 0.68 0 0 Z " fill="#18C5CC" transform="translate(184,151)"/>
<path d="M0 0 C0.66 0.33 1.32 0.66 2 1 C-0.97 5.95 -0.97 5.95 -4 11 C-5.33332095 8.3333581 -4.67102033 6.83319697 -4 4 C-3.34 4 -2.68 4 -2 4 C-2 3.34 -2 2.68 -2 2 C-1.34 2 -0.68 2 0 2 C0 1.34 0 0.68 0 0 Z " fill="#31BEC6" transform="translate(123,121)"/>
<path d="M0 0 C1.32 0.33 2.64 0.66 4 1 C4.12375 1.639375 4.2475 2.27875 4.375 2.9375 C4.684375 3.9584375 4.684375 3.9584375 5 5 C5.66 5.33 6.32 5.66 7 6 C7 7.65 7 9.3 7 11 C4.04250209 7.53258866 1.92151848 4.13126473 0 0 Z " fill="#35C4C5" transform="translate(156,123)"/>
<path d="M0 0 C0.66 0.33 1.32 0.66 2 1 C-0.97 5.95 -0.97 5.95 -4 11 C-5 7 -5 7 -4 4 C-3.01 4 -2.02 4 -1 4 C-0.67 2.68 -0.34 1.36 0 0 Z " fill="#2EC2C0" transform="translate(138,97)"/>
<path d="M0 0 C0.66 0 1.32 0 2 0 C2 0.66 2 1.32 2 2 C2.66 2 3.32 2 4 2 C5.66670026 5.52948291 6.13583456 7.28272326 5 11 C4.16151196 9.54462432 3.32936066 8.08559627 2.5 6.625 C1.80390625 5.40683594 1.80390625 5.40683594 1.09375 4.1640625 C0 2 0 2 0 0 Z " fill="#30C5CA" transform="translate(43,69)"/>
<path d="M0 0 C0.33 0.99 0.66 1.98 1 3 C0.34 3 -0.32 3 -1 3 C-1 3.66 -1 4.32 -1 5 C-2.32 5 -3.64 5 -5 5 C-5.33 3.68 -5.66 2.36 -6 1 C-4.02 0.67 -2.04 0.34 0 0 Z " fill="#07EEA2" transform="translate(262,25)"/>
<path d="M0 0 C4.06623972 1.35541324 5.53046818 3.57009469 8 7 C7.67 7.99 7.34 8.98 7 10 C2 4.25 2 4.25 2 2 C1.01 1.67 0.02 1.34 -1 1 C-0.67 0.67 -0.34 0.34 0 0 Z " fill="#298CC7" transform="translate(142,202)"/>
<path d="M0 0 C0.99 0.33 1.98 0.66 3 1 C4.89212737 1.22179785 6.78884472 1.40614015 8.6875 1.5625 C9.68136719 1.64628906 10.67523438 1.73007813 11.69921875 1.81640625 C12.83810547 1.90728516 12.83810547 1.90728516 14 2 C14 2.33 14 2.66 14 3 C9.71 3 5.42 3 1 3 C0.67 4.32 0.34 5.64 0 7 C-1.125 2.25 -1.125 2.25 0 0 Z " fill="#1A93D8" transform="translate(107,192)"/>
<path d="M0 0 C0.66 0 1.32 0 2 0 C2 0.66 2 1.32 2 2 C2.66 2 3.32 2 4 2 C4 2.99 4 3.98 4 5 C4.66 5 5.32 5 6 5 C6 6.65 6 8.3 6 10 C3.25722422 6.80009492 1.3697164 3.99500618 0 0 Z " fill="#2DC8C3" transform="translate(21,34)"/>
<path d="M0 0 C0.33 0.66 0.66 1.32 1 2 C1.825 2.165 2.65 2.33 3.5 2.5 C4.325 2.665 5.15 2.83 6 3 C6.33 3.66 6.66 4.32 7 5 C4.69 5 2.38 5 0 5 C-0.5625 3.0625 -0.5625 3.0625 -1 1 C-0.67 0.67 -0.34 0.34 0 0 Z " fill="#2AB8BA" transform="translate(207,238)"/>
<path d="M0 0 C0.99 0.33 1.98 0.66 3 1 C0.525 4.465 0.525 4.465 -2 8 C-2.66 7.01 -3.32 6.02 -4 5 C-3.34 5 -2.68 5 -2 5 C-2 4.01 -2 3.02 -2 2 C-1.34 2 -0.68 2 0 2 C0 1.34 0 0.68 0 0 Z " fill="#28DDA7" transform="translate(250,44)"/>
<path d="M0 0 C0.66 0 1.32 0 2 0 C2.144375 1.11375 2.28875 2.2275 2.4375 3.375 C2.78372035 6.82142047 2.78372035 6.82142047 4 9 C2.68 8.67 1.36 8.34 0 8 C0 5.36 0 2.72 0 0 Z " fill="#0CAEAD" transform="translate(135,237)"/>
<path d="M0 0 C2.97 0 5.94 0 9 0 C9 0.33 9 0.66 9 1 C7.35 1.33 5.7 1.66 4 2 C4 2.66 4 3.32 4 4 C2.35 3.67 0.7 3.34 -1 3 C-0.67 2.01 -0.34 1.02 0 0 Z " fill="#3B9D9C" transform="translate(50,231)"/>
<path d="M0 0 C0.99 0 1.98 0 3 0 C3 1.65 3 3.3 3 5 C1.68 5.33 0.36 5.66 -1 6 C-0.67 4.02 -0.34 2.04 0 0 Z " fill="#0BCAD3" transform="translate(122,116)"/>
<path d="M0 0 C2.5 2.3125 2.5 2.3125 5 5 C5 5.99 5 6.98 5 8 C3.68 7.67 2.36 7.34 1 7 C0.67 4.69 0.34 2.38 0 0 Z " fill="#1D86BE" transform="translate(145,193)"/>
<path d="M0 0 C1.85776765 3.13498292 2.20140476 5.37471432 2 9 C1.01 9 0.02 9 -1 9 C-2.0326802 6.21176345 -2.04509293 5.1322726 -1.0625 2.25 C-0.711875 1.5075 -0.36125 0.765 0 0 Z " fill="#2184BD" transform="translate(72,191)"/>
<path d="M0 0 C2.31 0 4.62 0 7 0 C7.33 0.66 7.66 1.32 8 2 C5.69 2.66 3.38 3.32 1 4 C0.67 2.68 0.34 1.36 0 0 Z " fill="#1DBDBB" transform="translate(179,245)"/>
<path d="M0 0 C2.97 0.495 2.97 0.495 6 1 C6 1.99 6 2.98 6 4 C4.02 4 2.04 4 0 4 C0 2.68 0 1.36 0 0 Z " fill="#1DB9BC" transform="translate(222,242)"/>
<path d="M0 0 C1.65 0.33 3.3 0.66 5 1 C4.67 1.99 4.34 2.98 4 4 C2.35 4 0.7 4 -1 4 C-0.67 2.68 -0.34 1.36 0 0 Z " fill="#25A9AB" transform="translate(138,244)"/>
<path d="M0 0 C0.33 0 0.66 0 1 0 C1 1.65 1 3.3 1 5 C2.32 4.67 3.64 4.34 5 4 C5 4.66 5 5.32 5 6 C4.34 6 3.68 6 3 6 C3.33 6.99 3.66 7.98 4 9 C2.68 8.34 1.36 7.68 0 7 C0 4.69 0 2.38 0 0 Z " fill="#30A7A2" transform="translate(83,238)"/>
<path d="M0 0 C0.66 1.32 1.32 2.64 2 4 C1.01 4 0.02 4 -1 4 C-1 5.32 -1 6.64 -1 8 C-1.99 8 -2.98 8 -4 8 C-2.87548273 5.0280615 -1.77706209 2.66559313 0 0 Z " fill="#2DCFB8" transform="translate(123,44)"/>
<path d="M0 0 C0.66 0 1.32 0 2 0 C2 1.65 2 3.3 2 5 C1.34 5 0.68 5 0 5 C-0.33 5.66 -0.66 6.32 -1 7 C-1.66 6.34 -2.32 5.68 -3 5 C-1.625 2.5 -1.625 2.5 0 0 Z " fill="#12B0AD" transform="translate(187,243)"/>
<path d="M0 0 C0.66 0.33 1.32 0.66 2 1 C1.814375 1.5775 1.62875 2.155 1.4375 2.75 C0.95976454 5.20692525 1.24270636 6.64397534 2 9 C1.01 8.67 0.02 8.34 -1 8 C-1.04241723 5.66705225 -1.04092937 3.33297433 -1 1 C-0.67 0.67 -0.34 0.34 0 0 Z " fill="#2886C1" transform="translate(193,198)"/>
<path d="M0 0 C2.50037734 2.17424117 3.43628586 3.73045798 4 7 C3.01 7 2.02 7 1 7 C0.67 4.69 0.34 2.38 0 0 Z " fill="#28C9BE" transform="translate(76,45)"/>
<path d="M0 0 C0.66 0 1.32 0 2 0 C2 0.99 2 1.98 2 3 C2.66 3 3.32 3 4 3 C4 3.66 4 4.32 4 5 C2.35 5 0.7 5 -1 5 C-0.67 3.35 -0.34 1.7 0 0 Z " fill="#04D8C1" transform="translate(59,25)"/>
</svg>
